<svg width="400" height="400" viewBox="0 0 400 400" xmlns="http://www.w3.org/2000/svg">
  <defs>
    <pattern id="doodle-pattern" x="0" y="0" width="100" height="100" patternUnits="userSpaceOnUse">
      <!-- Book -->
      <path d="M20 30h30v40H20z" fill="none" stroke="#4195d1" stroke-width="2" opacity="0.2"/>
      <path d="M20 30c0-3 3-3 3-3h27" fill="none" stroke="#4195d1" stroke-width="2" opacity="0.2"/>
      
      <!-- Calculator -->
      <rect x="60" y="20" width="25" height="30" rx="2" fill="none" stroke="#406ab4" stroke-width="2" opacity="0.2"/>
      <line x1="65" y1="25" x2="80" y2="25" stroke="#406ab4" stroke-width="2" opacity="0.2"/>
      <line x1="65" y1="30" x2="80" y2="30" stroke="#406ab4" stroke-width="2" opacity="0.2"/>
      <line x1="65" y1="35" x2="80" y2="35" stroke="#406ab4" stroke-width="2" opacity="0.2"/>
      
      <!-- Flask -->
      <path d="M20 80c0,10 8,15 8,15h14s8-5 8-15v-20h-30z" fill="none" stroke="#4195d1" stroke-width="2" opacity="0.2"/>
      <line x1="20" y1="60" x2="50" y2="60" stroke="#4195d1" stroke-width="2" opacity="0.2"/>
      
      <!-- Pencil -->
      <path d="M70 60l15 15l-5 5l-15-15z" fill="none" stroke="#406ab4" stroke-width="2" opacity="0.2"/>
      <path d="M65 65l5-5l15 15l-5 5z" fill="none" stroke="#406ab4" stroke-width="2" opacity="0.2"/>
    </pattern>
  </defs>
  
  <rect width="100%" height="100%" fill="url(#doodle-pattern)"/>
</svg>